<?xml version="1.0" standalone="yes"?>
<svg width="90" height="82">
<path style="fill:#00adb5; stroke:none;" d="M0 0L0 82L90 82L90 0L0 0z"/>
<path style="fill:#efeeee; stroke:none;" d="M54 22L49 19L48 22L43 19L40 19L40 22L31 19L31 23L24 24L24 20L21 20C19.7094 24.2544 17.0695 24.8952 13 26L13 21C8.56428 24.1339 10 31.0927 10 36L10 78L81 78L81 34C81 28.2439 82.6205 19.5475 80.3966 14.1736C74.1644 -0.886215 54.0467 8.77952 54 22z"/>
<path style="fill:#00adb5; stroke:none;" d="M58 28L59 28C59.0847 20.8255 67.434 12.6423 74.3966 19.6034C76.6507 21.8571 75.9978 26.107 76 29L78 29C78 24.8419 79.0702 18.8553 76.9722 15.108C73.4269 8.77557 62.5011 8.63025 59.0278 15.0548C57.0827 18.6525 58 24.0399 58 28z"/>
<path style="fill:#58c5ca; stroke:none;" d="M67.6667 12.3333L68.3333 12.6667L67.6667 12.3333z"/>
<path style="fill:#76cdd1; stroke:none;" d="M66.3333 13.6667L66.6667 14.3333L66.3333 13.6667z"/>
<path style="fill:#e6ecec; stroke:none;" d="M67 13L67 15L69 15L69 13L67 13z"/>
<path style="fill:#60c7cc; stroke:none;" d="M69.3333 13.6667L69.6667 14.3333L69.3333 13.6667z"/>
<path style="fill:#c2e2e4; stroke:none;" d="M81 14L81 78L82 78L82 34L81 14z"/>
<path style="fill:#52c4c9; stroke:none;" d="M53 15L51 21L51 22C54.6016 21.2282 54.6591 17.8795 53 15z"/>
<path style="fill:#34bbc2; stroke:none;" d="M57 15L57 28L58 28L57 15z"/>
<path style="fill:#5ac5cb; stroke:none;" d="M67.6667 15.3333L68.3333 15.6667L67.6667 15.3333z"/>
<path style="fill:#39bdc3; stroke:none;" d="M82 15L82 77L83 77L83 35L82 15z"/>
<path style="fill:#bee1e3; stroke:none;" d="M56 16L56 28L57 28L56 16z"/>
<path style="fill:#4cc2c7; stroke:none;" d="M78 16L78 29L79 29L78 16z"/>
<path style="fill:#43bfc5; stroke:none;" d="M61 18L61 19L75 19L61 18z"/>
<path style="fill:#7fcfd3; stroke:none;" d="M30 19L30 23L31 23L30 19z"/>
<path style="fill:#6fcbcf; stroke:none;" d="M33 19L33 22L34 22L33 19z"/>
<path style="fill:#3cbdc3; stroke:none;" d="M47 19L43 21L43 22C45.4499 21.8795 48.0951 21.9051 47 19z"/>
<path style="fill:#9ad7da; stroke:none;" d="M50 19L50 22L51 22L50 19z"/>
<path style="fill:#a2d9dc; stroke:none;" d="M75 19L75 29L76 29L75 19z"/>
<path style="fill:#8ad3d6; stroke:none;" d="M24 20L26 24L24 20z"/>
<path style="fill:#2fbac1; stroke:none;" d="M59 20L59 28L60 28L59 20z"/>
<path style="fill:#abdcde; stroke:none;" d="M63 21L63 22L73 22L63 21z"/>
<path style="fill:#50c3c8; stroke:none;" d="M13 22L15 26L13 22z"/>
<path style="fill:#59c6cb; stroke:none;" d="M63 22L63 28L64 28L63 22z"/>
<path style="fill:#00acb4; stroke:none;" d="M64 22L64 28L72 28L72 22L64 22z"/>
<path style="fill:#73ccd0; stroke:none;" d="M72 22L72 28L64 28L64 29L73 29L72 22z"/>
<path style="fill:#39bdc3; stroke:none;" d="M9 23L9 77L10 77L10 41L9 23z"/>
<path style="fill:#6fcbcf; stroke:none;" d="M18.6667 24.3333L19.3333 24.6667L18.6667 24.3333z"/>
<path style="fill:#a8dbdd; stroke:none;" d="M43 24L43 25L47 28L48 28L48 24L43 24z"/>
<path style="fill:#41bfc4; stroke:none;" d="M34 25L34 26L38 26L34 25z"/>
<path style="fill:#00acb4; stroke:none;" d="M38 25L34 26L34 30L39 29L38 25z"/>
<path style="fill:#53c4c9; stroke:none;" d="M39 25L39 29L40 29L39 25z"/>
<path style="fill:#a9dbde; stroke:none;" d="M42 25L42 29L47 29L47 28L42 25z"/>
<path style="fill:#00abb3; stroke:none;" d="M43 25L43 28L47 28L47 25L43 25z"/>
<path style="fill:#11adb4; stroke:none;" d="M51 25L51 28L54 28L54 25L51 25z"/>
<path style="fill:#4ec2c8; stroke:none;" d="M24 26L26 33L28 27L24 26z"/>
<path style="fill:#00adb5; stroke:none;" d="M25 27L25 32C28.9108 31.3483 29.6998 29.8644 30 26L25 27z"/>
<path style="fill:#7ccfd3; stroke:none;" d="M30 26L30 31L31 31L30 26z"/>
<path style="fill:#70ccd0; stroke:none;" d="M33 26L35 31L33 26z"/>
<path style="fill:#00adb5; stroke:none;" d="M14 37C19.109 35.4644 20.826 33.3141 21 28C14.5336 28.2123 14.021 31.0629 14 37z"/>
<path style="fill:#4cc2c7; stroke:none;" d="M13 29L15 38L13 29z"/>
<path style="fill:#63c8cd; stroke:none;" d="M36 29L36 30L39 30L36 29z"/>
<path style="fill:#a8dbde; stroke:none;" d="M42 31L42 32L46 32L42 31z"/>
<path style="fill:#00adb5; stroke:none;" d="M14 74C27.8658 74 29.1852 65.1613 36.8989 55C43.5652 46.2185 51.2056 38.6279 60 32C53.5566 29.3225 46.4254 34.3699 41 37.6042C25.9197 46.594 14 55.8679 14 74z"/>
<path style="fill:#78ced2; stroke:none;" d="M65 31L65 32L70 33L65 31z"/>
<path style="fill:#85d2d6; stroke:none;" d="M37 32L37 33L40 33L37 32z"/>
<path style="fill:#00adb5; stroke:none;" d="M14 55L44 33C37.4696 30.6578 18.9437 35.2522 15.0278 41.3904C12.832 44.8323 14 51.0736 14 55M29 74L44.3009 72.9722L51.591 59L69 32C52.2952 33.121 33.9747 59.4141 29 74M49 74L62.2724 72.9722L66.7199 61L77 32C62.3527 36.1456 53.4105 60.9628 49 74z"/>
<path style="fill:#5ac6cb; stroke:none;" d="M77.3333 32.6667L77.6667 33.3333L77.3333 32.6667z"/>
<path style="fill:#92d5d8; stroke:none;" d="M76.3333 35.6667L76.6667 36.3333L76.3333 35.6667z"/>
<path style="fill:#80d0d3; stroke:none;" d="M75.3333 37.6667L75.6667 38.3333L75.3333 37.6667z"/>
<path style="fill:#a6dadc; stroke:none;" d="M74.3333 40.6667L74.6667 41.3333L74.3333 40.6667z"/>
<path style="fill:#4cc2c7; stroke:none;" d="M77 40L78 74L68 72L67 72C68.0128 76.7262 75.0051 75 79 75L79 40L77 40M13 42L13 57L14 57L13 42z"/>
<path style="fill:#8ad2d6; stroke:none;" d="M73.3333 42.6667L73.6667 43.3333L73.3333 42.6667z"/>
<path style="fill:#5cc6cb; stroke:none;" d="M76.3333 43.6667L76.6667 44.3333L76.3333 43.6667z"/>
<path style="fill:#00adb5; stroke:none;" d="M77 43L68 74L78 74L77 43z"/>
<path style="fill:#6ecbcf; stroke:none;" d="M72 44L72 47L73 47L72 44z"/>
<path style="fill:#79ced2; stroke:none;" d="M75.3333 45.6667L75.6667 46.3333L75.3333 45.6667z"/>
<path style="fill:#82d0d4; stroke:none;" d="M71.3333 47.6667L71.6667 48.3333L71.3333 47.6667z"/>
<path style="fill:#66c9cd; stroke:none;" d="M74.3333 48.6667L74.6667 49.3333L74.3333 48.6667z"/>
<path style="fill:#5ec7cc; stroke:none;" d="M70 49L70 52L71 52L70 49z"/>
<path style="fill:#89d2d6; stroke:none;" d="M73.3333 50.6667L73.6667 51.3333L73.3333 50.6667z"/>
<path style="fill:#5fc7cc; stroke:none;" d="M69.3333 52.6667L69.6667 53.3333L69.3333 52.6667z"/>
<path style="fill:#88d2d6; stroke:none;" d="M72.3333 53.6667L72.6667 54.3333L72.3333 53.6667z"/>
<path style="fill:#67c9cd; stroke:none;" d="M68.3333 55.6667L68.6667 56.3333L68.3333 55.6667z"/>
<path style="fill:#87d2d6; stroke:none;" d="M71.3333 56.6667L71.6667 57.3333L71.3333 56.6667z"/>
<path style="fill:#89d2d5; stroke:none;" d="M51.3333 58.6667L51.6667 59.3333L51.3333 58.6667z"/>
<path style="fill:#67c9cd; stroke:none;" d="M67.3333 58.6667L67.6667 59.3333L67.3333 58.6667z"/>
<path style="fill:#67c9ce; stroke:none;" d="M54.3333 59.6667L54.6667 60.3333L54.3333 59.6667z"/>
<path style="fill:#87d2d6; stroke:none;" d="M70.3333 59.6667L70.6667 60.3333L70.3333 59.6667z"/>
<path style="fill:#68cace; stroke:none;" d="M53.3333 61.6667L53.6667 62.3333L53.3333 61.6667z"/>
<path style="fill:#b2dddf; stroke:none;" d="M66 61L66 65L67 65L66 61z"/>
<path style="fill:#43bfc5; stroke:none;" d="M13 62L13 75L25 75L25 74L14 74L13 62z"/>
<path style="fill:#90d4d7; stroke:none;" d="M69 62L69 65L70 65L69 62z"/>
<path style="fill:#69cace; stroke:none;" d="M52.3333 63.6667L52.6667 64.3333L52.3333 63.6667z"/>
<path style="fill:#6dcbcf; stroke:none;" d="M48.3333 64.6667L48.6667 65.3333L48.3333 64.6667z"/>
<path style="fill:#79ced2; stroke:none;" d="M51 65L51 68L52 68L51 65z"/>
<path style="fill:#9fd8db; stroke:none;" d="M65 65L64 73L65 73L65 65z"/>
<path style="fill:#98d6da; stroke:none;" d="M68 65L68 68L69 68L68 65z"/>
<path style="fill:#91d4d8; stroke:none;" d="M47.3333 67.6667L47.6667 68.3333L47.3333 67.6667z"/>
<path style="fill:#54c4ca; stroke:none;" d="M50.3333 68.6667L50.6667 69.3333L50.3333 68.6667z"/>
<path style="fill:#78ced2; stroke:none;" d="M46.3333 69.6667L46.6667 70.3333L46.3333 69.6667z"/>
<path style="fill:#90d4d7; stroke:none;" d="M67 69L67 72L68 72L67 69z"/>
<path style="fill:#72ccd0; stroke:none;" d="M49 70L49 73L50 73L49 70z"/>
<path style="fill:#5dc6cb; stroke:none;" d="M29.3333 71.6667L29.6667 72.3333L29.3333 71.6667z"/>
<path style="fill:#89d2d6; stroke:none;" d="M45.3333 72.6667L45.6667 73.3333L45.3333 72.6667z"/>
<path style="fill:#43bfc5; stroke:none;" d="M63 72C58.8409 75.1509 52.855 74.1559 48 73C50.0912 75.8645 64.7685 76.6913 63 72M28 73L45 75L45 74L28 73z"/>
</svg>
